<svg xmlns="http://www.w3.org/2000/svg" width="31" height="24" viewBox="0 0 31 24">
    <g fill="#FFF" fill-rule="evenodd">
        <path d="M22.372 0c2.524 0 4.978.732 7.103 2.115.484.314.776.859.776 1.45v17.706a1.715 1.715 0 0 1-1.71 1.725c-.275 0-.551-.067-.798-.2a11.402 11.402 0 0 0-6.081-1.32 11.4 11.4 0 0 0-5.767 1.987v.025l-.101.057-.021.034-.074.024-.033.037-.1.024c-.012.004-.03.01-.05.014a.222.222 0 0 1-.064.017c-.016.005-.028.01-.039.01l-.035.006h-.045l-.05.001c-.02 0-.055 0-.094-.005a.193.193 0 0 1-.04-.006l-.092-.02h-.003l-.111-.044a.226.226 0 0 0-.023-.013.477.477 0 0 1-.053-.028l-.192-.107v-.03a11.423 11.423 0 0 0-11.84-.663 1.704 1.704 0 0 1-1.687-.046 1.72 1.72 0 0 1-.828-1.48V3.567c0-.589.286-1.128.767-1.448A13.003 13.003 0 0 1 8.453.004c2.442.049 4.796.772 6.83 2.1a13.005 13.005 0 0 1 6.833-2.1C22.2.002 22.288 0 22.372 0zm-.223 1.614l-.406.016a11.384 11.384 0 0 0-5.658 1.872V21.46a13.08 13.08 0 0 1 5.475-1.596c2.4-.148 4.818.378 6.928 1.505a.1.1 0 0 0 .049.013c.026 0 .052-.01.06-.016l.01-.007c.03-.019.044-.047.044-.088V3.566c0-.042-.02-.082-.04-.096a11.435 11.435 0 0 0-6.462-1.856z"/>
        <path d="M26.068 10.299l-2.232-.213a.388.388 0 0 1-.32-.239l-.8-1.958a.381.381 0 0 0-.71 0l-.793 1.958a.379.379 0 0 1-.32.239l-2.232.213c-.333.032-.467.452-.218.678l1.683 1.493c.109.097.154.239.122.38l-.506 2.095c-.076.33.275.6.57.426l1.86-1.105a.383.383 0 0 1 .391 0l1.861 1.105c.295.175.646-.09.57-.426l-.5-2.094a.388.388 0 0 1 .122-.381l1.683-1.493a.395.395 0 0 0-.23-.678"/>
    </g>
</svg>
