<svg xmlns="http://www.w3.org/2000/svg" width="92" height="73" viewBox="0 0 92 73">
    <g fill="#D9017A" fill-rule="evenodd">
        <path d="M89.272 6.432A39.933 39.933 0 0 0 67.535 0c-.259 0-.527.007-.786.01a39.987 39.987 0 0 0-20.913 6.386C39.612 2.361 32.404.16 24.933.01c-8-.156-15.808 2.077-22.545 6.433C.914 7.415.04 9.056.04 10.845v53.852c0 1.854.94 3.53 2.536 4.501.832.486 1.768.75 2.71.75.845 0 1.665-.2 2.45-.608a35.117 35.117 0 0 1 18.586-4.018 35.11 35.11 0 0 1 17.654 6.034v.09l.587.323c.039.025.098.06.163.088.024.01.045.024.07.04.117.052.23.103.34.131h.01c.091.024.184.052.28.064.038.01.074.013.124.016.12.016.226.016.286.016h.024c.093 0 .163 0 .265-.004l.11-.018a.353.353 0 0 0 .117-.032.635.635 0 0 0 .194-.05c.065-.013.12-.031.156-.042l.308-.074.099-.11.226-.076.064-.103.31-.173v-.074a35.036 35.036 0 0 1 17.651-6.046 35.055 35.055 0 0 1 18.61 4.019c.758.4 1.603.606 2.445.606.947 0 1.886-.263 2.713-.76a5.21 5.21 0 0 0 2.52-4.49V10.845c0-1.799-.894-3.458-2.376-4.413zm-2.521 58.265c0 .127-.043.213-.135.27l-.027.021a.406.406 0 0 1-.189.049.302.302 0 0 1-.147-.042c-6.458-3.426-13.859-5.026-21.205-4.576a40.21 40.21 0 0 0-16.758 4.856V10.653C53.797 7.032 60.2 5.048 66.852 4.91c7.048-.122 13.908 1.838 19.775 5.644.063.042.124.164.124.29v53.853z"/>
        <path d="M78.846 30.021l-6.833-.648a1.184 1.184 0 0 1-.979-.727l-2.446-5.956c-.392-.982-1.782-.982-2.173 0l-2.429 5.956a1.156 1.156 0 0 1-.978.727l-6.832.648c-1.019.099-1.43 1.375-.667 2.064l5.149 4.54c.334.294.47.726.373 1.16l-1.547 6.367c-.235 1.002.841 1.828 1.743 1.296l5.697-3.36a1.177 1.177 0 0 1 1.193 0l5.699 3.36c.9.532 1.976-.275 1.741-1.296l-1.528-6.367c-.097-.434.04-.866.373-1.16l5.149-4.54c.744-.689.313-1.965-.705-2.064"/>
    </g>
</svg>
