<svg xmlns="http://www.w3.org/2000/svg" xmlns:xlink="http://www.w3.org/1999/xlink" width="18" height="18" viewBox="0 0 18 18">
    <defs>
        <path id="a" d="M7.619 14.637A6.919 6.919 0 1 1 7.619.8a6.919 6.919 0 0 1 0 13.837zm0-1.085a5.833 5.833 0 1 0 0-11.667 5.833 5.833 0 0 0 0 11.667zm.64-7.418v4.07c0 .337.076.5.434.5h.695v.51H6.197v-.51h.705c.359 0 .435-.163.435-.5v-3.06c0-.337-.076-.5-.435-.5h-.705v-.51h2.062zm-.022-1.628a.59.59 0 0 1-.586.586.584.584 0 0 1-.586-.586.59.59 0 0 1 .586-.586c.315 0 .586.272.586.586z"/>
    </defs>
    <g fill="none" fill-rule="evenodd" transform="translate(2 1)">
        <mask id="b" fill="#fff">
            <use xlink:href="#a"/>
        </mask>
        <use fill="#0B4D43" fill-rule="nonzero" xlink:href="#a"/>
        <g fill="#0F433A" mask="url(#b)">
            <path d="M-2-1h18v18H-2z"/>
        </g>
    </g>
</svg>
