<svg xmlns="http://www.w3.org/2000/svg" width="125" height="175" viewBox="0 0 125 175">
  <g fill="none" fill-rule="evenodd">
    <rect width="125" height="175" fill="#D8D8D8"/>
    <g fill="#FFF" transform="translate(31 48)">
      <path d="M62.589554,72.7122779 C63.4651851,74.2739326 62.589554,80 62.589554,80 C46.6157853,64.2015732 22.8082566,66.5848214 9.69281161,66.5848214 C3.80433503,66.5848214 0,61.7838306 0,57.001655 L0,3.90790278 C0,2.51370259 4.40034752,-0.00313292531 6.73620923,2.92756997e-06 L6.73620923,55.1251606 C6.73620923,57.7674303 8.88819475,59.9418307 11.741446,59.9474752 C11.741446,59.9474752 53.8262683,57.0725253 62.589554,72.7122779"/>
      <path d="M43.1088103,47.1172605 C41.7562533,47.1237508 40.4747438,46.7142139 39.1321468,47.1023329 C36.9489326,47.7331885 35.5127123,49.8704389 35.7756542,52.0797315 C36.0359401,54.2792887 37.9376205,56.0297183 40.1985221,56.1595239 C42.4474717,56.2860845 44.5563185,55.2807395 45.9500431,53.5692517 C47.6684611,51.4573133 48.1837208,48.45361 47.0708659,45.9574468 C45.5137987,46.9420229 44.5085109,47.1107702 43.1088103,47.1172605"/>
    </g>
  </g>
</svg>
