<svg xmlns="http://www.w3.org/2000/svg" viewBox="0 0 40 40"><path fill="#0f433a" d="M38.957 16.47l-4.5-5.576c-.491-.609-1.451-1.067-2.233-1.067h-7.453v-.838c0-.956-.777-1.733-1.733-1.733h-20.8c-.956 0-1.734.777-1.734 1.733v18.142c0 .956.778 1.734 1.734 1.734h3.705a4.626 4.626 0 0 0 4.612 4.393 4.626 4.626 0 0 0 4.613-4.393H26.26a4.625 4.625 0 0 0 4.612 4.393 4.627 4.627 0 0 0 4.613-4.393h2.546c.956 0 1.734-.778 1.734-1.734v-8.377c0-.734-.348-1.716-.808-2.285zm-.586 2.183h-8.487a.351.351 0 0 1-.347-.347V14.4c0-.188.16-.347.347-.347h5.342l2.653 3.286c.241.3.46.895.492 1.313zM10.555 31.87a3.241 3.241 0 0 1-3.237-3.238 3.241 3.241 0 0 1 3.237-3.238 3.242 3.242 0 0 1 3.238 3.238 3.242 3.242 0 0 1-3.238 3.238zm10.23-4.393h-5.757a4.628 4.628 0 0 0-4.473-3.469 4.628 4.628 0 0 0-4.472 3.47H2.238a.352.352 0 0 1-.347-.348V8.99c0-.188.159-.347.347-.347h20.8c.188 0 .347.159.347.347v18.142a.352.352 0 0 1-.347.347h-2.254zm10.087 4.393a3.241 3.241 0 0 1-3.238-3.238 3.241 3.241 0 0 1 3.238-3.238 3.242 3.242 0 0 1 3.238 3.238 3.242 3.242 0 0 1-3.238 3.238zm7.159-4.393h-2.687a4.629 4.629 0 0 0-4.472-3.469 4.628 4.628 0 0 0-4.473 3.47h-1.663c.023-.113.035-.229.035-.348V11.213h7.453c.365 0 .925.268 1.154.552l.729.902h-4.223c-.956 0-1.733.778-1.733 1.734v3.904c0 .956.777 1.734 1.733 1.734h8.494v7.092a.352.352 0 0 1-.347.347z" /></svg>